<svg id="Capa_1" enable-background="new 0 0 512 512" height="512" viewBox="0 0 512 512" width="512" xmlns="http://www.w3.org/2000/svg"><g><g><g><g><g><g><g><g><circle cx="256" cy="256" fill="#7584f2" r="256"/></g></g></g></g></g></g></g><path d="m512 256c0-1.736-.018-3.468-.052-5.196l-185.364-185.364-167.712 375.311 69.808 69.808c8.976.952 18.091 1.441 27.32 1.441 141.385 0 256-114.615 256-256z" fill="#606aea"/><g><path d="m158.872 155.514 97.128-12.01 97.128 12.01v285.237h-194.256z" fill="#fff"/></g><g><path d="m353.128 155.514-97.008-11.995v297.232h97.008z" fill="#e9edf5"/></g><g><path d="m184.986 94.714v-29.274h141.598l.43 29.274-71.014 9.007z" fill="#fff"/></g><g><path d="m326.584 65.44h-70.464v38.266l70.894-8.992z" fill="#e9edf5"/></g><g><path d="m353.128 155.514h-194.256l26.114-60.8h142.028z" fill="#e9edf5"/></g><g><path d="m327.014 94.714h-70.894v60.8h97.008z" fill="#cdd2e1"/></g><g><ellipse cx="256" cy="125.114" fill="#fff" rx="18.453" ry="16.889"/></g><g><path d="m274.453 125.114c0-9.29-8.197-16.823-18.332-16.883v33.767c10.134-.06 18.332-7.594 18.332-16.884z" fill="#e9edf5"/></g></g></svg>