<svg id="Capa_1" enable-background="new 0 0 512 512" height="512" viewBox="0 0 512 512" width="512" xmlns="http://www.w3.org/2000/svg"><g><g><g><g><g><g><g><circle cx="256" cy="256" fill="#a3d4ff" r="256"/></g></g></g></g></g></g><path d="m512 256c0-3.563-.073-7.11-.217-10.638l-170.53-170.529-8.583 9.418-24.952-24.952-166.831 79.464 148.859 148.859-125.619 156.07 67.127 67.127c8.143.781 16.398 1.181 24.746 1.181 141.385 0 256-114.615 256-256z" fill="#65b1fc"/><g><path d="m319.866 210.646c-25.661-7.964-43.303-26.355-51.019-53.185-5.427-18.868-3.949-35.171-3.763-36.969l29.84 3.095-14.92-1.547 14.927 1.483c-.013.126-1.146 12.746 2.982 26.445 5.022 16.667 15.112 27.143 30.845 32.025z" fill="#cdd2e1"/></g><g><path d="m250.346 189.018-14.649-40.849-71.57 26.715v268.809h183.746v-138.216c0-26.541-15.318-50.699-39.325-62.017l-15.322-7.223c-19.993-9.427-35.418-26.413-42.88-47.219z" fill="#7584f2"/></g><g><path d="m250.346 189.018-14.649-40.849-25.634 26.715v268.809h137.809v-138.216c0-26.541-15.318-50.699-39.325-62.017l-15.322-7.223c-19.992-9.427-35.417-26.413-42.879-47.219z" fill="#606aea"/></g><g><path d="m164.127 121.454h91.873v53.43h-91.873z" fill="#ffce00"/></g><g><path d="m210.064 121.454h45.936v53.43h-45.936z" fill="#fdba12"/></g><g><path d="m293.624 74.833h47.63v48.397h-47.63z" fill="#cdd2e1"/></g><g><path d="m307.718 138.763h-166.831v-46.343c0-18.292 14.829-33.12 33.12-33.12h133.711z" fill="#fff"/></g><g><path d="m210.064 59.299h97.655v79.464h-97.655z" fill="#e9edf5"/></g></g></svg>